HIERARCHY
ROOT Hips
{
	OFFSET 0.00000 0.00000 0.00000
	CHANNELS 6 Xposition Yposition Zposition Zrotation Yrotation Xrotation 
	JOINT LHipJoint
	{
		OFFSET 0 0 0
		CHANNELS 3 Zrotation Yrotation Xrotation
		JOINT LeftUpLeg
		{
			OFFSET 1.54859 -1.61379 0.86856
			CHANNELS 3 Zrotation Yrotation Xrotation
			JOINT LeftLeg
			{
				OFFSET 2.25087 -6.18423 0.00000
				CHANNELS 3 Zrotation Yrotation Xrotation
				JOINT LeftFoot
				{
					OFFSET 2.40328 -6.60297 0.00000
					CHANNELS 3 Zrotation Yrotation Xrotation
					JOINT LeftToeBase
					{
						OFFSET 0.17435 -0.47901 2.02453
						CHANNELS 3 Zrotation Yrotation Xrotation
						End Site
						{
							OFFSET 0.00000 -0.00000 1.04844
						}
					}
				}
			}
		}
	}
	JOINT RHipJoint
	{
		OFFSET 0 0 0
		CHANNELS 3 Zrotation Yrotation Xrotation
		JOINT RightUpLeg
		{
			OFFSET -1.54669 -1.61379 0.86856
			CHANNELS 3 Zrotation Yrotation Xrotation
			JOINT RightLeg
			{
				OFFSET -2.28132 -6.26789 0.00000
				CHANNELS 3 Zrotation Yrotation Xrotation
				JOINT RightFoot
				{
					OFFSET -2.51636 -6.91365 0.00000
					CHANNELS 3 Zrotation Yrotation Xrotation
					JOINT RightToeBase
					{
						OFFSET -0.15124 -0.41552 2.21090
						CHANNELS 3 Zrotation Yrotation Xrotation
						End Site
						{
							OFFSET -0.00000 -0.00000 1.13399
						}
					}
				}
			}
		}
	}
	JOINT LowerBack
	{
		OFFSET 0 0 0
		CHANNELS 3 Zrotation Yrotation Xrotation
		JOINT Spine
		{
			OFFSET -0.04287 2.26161 -0.25690
			CHANNELS 3 Zrotation Yrotation Xrotation
			JOINT Spine1
			{
				OFFSET 0.02248 2.28395 -0.10140
				CHANNELS 3 Zrotation Yrotation Xrotation
				JOINT Neck
				{
					OFFSET 0 0 0
					CHANNELS 3 Zrotation Yrotation Xrotation
					JOINT Neck1
					{
						OFFSET -0.11644 1.38496 0.11345
						CHANNELS 3 Zrotation Yrotation Xrotation
						JOINT Head
						{
							OFFSET 0.29383 1.36600 0.06642
							CHANNELS 3 Zrotation Yrotation Xrotation
							End Site
							{
								OFFSET 0.11075 1.41395 -0.00294
							}
						}
					}
				}
				JOINT LeftShoulder
				{
					OFFSET 0 0 0
					CHANNELS 3 Zrotation Yrotation Xrotation
					JOINT LeftArm
					{
						OFFSET 3.51628 0.59542 -0.30346
						CHANNELS 3 Zrotation Yrotation Xrotation
						JOINT LeftForeArm
						{
							OFFSET 4.76405 -0.00000 0.00000
							CHANNELS 3 Zrotation Yrotation Xrotation
							JOINT LeftHand
							{
								OFFSET 3.13759 -0.00000 -0.00000
								CHANNELS 3 Zrotation Yrotation Xrotation
								JOINT LeftFingerBase
								{
									OFFSET 0 0 0
									CHANNELS 3 Zrotation Yrotation Xrotation
									JOINT LeftHandIndex1
									{
										OFFSET 0.73226 -0.00000 -0.00000
										CHANNELS 3 Zrotation Yrotation Xrotation
										End Site
										{
											OFFSET 0.59037 -0.00000 -0.00000
										}
									}
								}
								JOINT LThumb
								{
									OFFSET 0 0 0
									CHANNELS 3 Zrotation Yrotation Xrotation
									End Site
									{
										OFFSET 0.59938 -0.00000 0.59938
									}
								}
							}
						}
					}
				}
				JOINT RightShoulder
				{
					OFFSET 0 0 0
					CHANNELS 3 Zrotation Yrotation Xrotation
					JOINT RightArm
					{
						OFFSET -3.30990 0.84213 -0.36430
						CHANNELS 3 Zrotation Yrotation Xrotation
						JOINT RightForeArm
						{
							OFFSET -5.10161 -0.00000 -0.00000
							CHANNELS 3 Zrotation Yrotation Xrotation
							JOINT RightHand
							{
								OFFSET -3.23267 -0.00000 -0.00000
								CHANNELS 3 Zrotation Yrotation Xrotation
								JOINT RightFingerBase
								{
									OFFSET 0 0 0
									CHANNELS 3 Zrotation Yrotation Xrotation
									JOINT RightHandIndex1
									{
										OFFSET -0.70200 -0.00000 -0.00000
										CHANNELS 3 Zrotation Yrotation Xrotation
										End Site
										{
											OFFSET -0.56597 -0.00000 -0.00000
										}
									}
								}
								JOINT RThumb
								{
									OFFSET 0 0 0
									CHANNELS 3 Zrotation Yrotation Xrotation
									End Site
									{
										OFFSET -0.57461 -0.00000 0.57461
									}
								}
							}
						}
					}
				}
			}
		}
	}
}
MOTION
Frames: 12
Frame Time: .0083333
29.7939 15.3912 -15.722 0 0 0 0 0 0 -21 0 0 0 0 0 0 0 0 0 0 0 0 0 0 21 0 0 0 0 0 0 0 0 0 0 0 0 0 0 0 0 0 0 0 0 0 0 -16 0 0 21 0 0 11 0 0 0 -8 0 0 0 0 0 0 0 0 0 0 0 0 0 0 0 0 0 0 0 0 8 0 0 0 0 0 0 0 0 0 0 0 0 0 0 0 0 0
29.7939 15.3912 -15.7220 -1.8445 -42.5417 -2.8992 0.0000 0.0000 0.0000 -16.7965 5.7704 3.5992 2.2321 9.3337 26.8450 1.9335 8.8527 -30.6902 0.6942 -5.3262 -14.8414 0.0000 0.0000 0.0000 12.6195 6.5438 -14.7224 -3.6081 -11.6197 34.3997 0.3657 -16.6401 -19.7265 -0.2071 2.9300 -8.0840 -5.2345 -0.7581 3.2142 1.6793 -1.1716 7.1636 4.6644 -0.9730 5.8124 -17.3880 -18.2195 18.0208 32.2500 -24.4577 -21.5146 13.8833 -14.3714 -2.4784 -0.0000 -0.0000 0.0000 -97.1968 -3.3080 16.7471 12.3547 -20.3344 -2.2240 -0.0000 0.0000 -0.9582 18.5395 26.7971 8.5976 -7.1250 0.0000 -0.0000 -12.8715 57.5589 -4.0024 -0.0000 -0.0000 0.0000 92.8221 8.6238 11.0918 -15.1516 24.3568 -3.2882 0.0000 0.0000 11.1009 -15.9923 24.5518 -6.7912 7.1250 -0.0000 -0.0000 8.2272 -4.7846 7.5926
29.7972 15.3811 -15.7242 -1.7528 -42.5295 -2.9970 0.0000 0.0000 0.0000 -16.9086 5.7088 3.6714 2.2078 9.2862 26.6948 1.8547 9.3521 -30.5255 0.8251 -5.7954 -16.1921 0.0000 0.0000 0.0000 12.4867 6.2177 -14.9841 -3.6606 -11.6945 34.6598 0.3307 -16.3186 -19.5984 -0.2335 3.1099 -8.5848 -5.2956 -0.7607 3.2914 1.6442 -1.1777 7.1700 4.6628 -0.9776 5.7772 -17.3466 -18.1983 17.9590 32.2208 -24.4121 -21.5233 13.8699 -14.3451 -2.4931 0.0000 -0.0000 0.0000 -97.1412 -3.4212 16.6498 12.2281 -20.1459 -2.1802 -0.0000 0.0000 -0.6775 19.9438 26.9750 9.3467 -7.1250 0.0000 -0.0000 -11.4734 58.0436 -3.6938 0.0000 -0.0000 0.0000 92.8447 8.7944 11.1774 -15.0222 24.1771 -3.2350 0.0000 0.0000 11.1373 -16.2791 24.2133 -6.8297 7.1250 -0.0000 -0.0000 8.0280 -5.0863 7.3589
29.7997 15.3730 -15.7251 -1.5392 -42.5161 -3.1329 0.0000 0.0000 0.0000 -17.0875 5.6916 3.6056 2.2189 9.3078 26.7631 1.8558 9.3625 -30.5399 0.8504 -5.8813 -16.4404 0.0000 0.0000 0.0000 12.2250 5.6470 -15.3103 -3.6781 -11.7192 34.7457 0.3048 -15.9085 -19.2197 -0.2957 3.4968 -9.6650 -5.4672 -0.7745 3.3242 1.5815 -1.1940 7.1196 4.6941 -0.9893 5.7110 -17.4448 -18.1834 17.8774 32.1476 -24.4734 -21.0941 13.7912 -14.3476 -2.3417 0.0000 -0.0000 0.0000 -97.0834 -3.3972 16.8118 12.1969 -20.0993 -2.1695 -0.0000 0.0000 -1.0698 20.1622 26.3321 9.2506 -7.1250 0.0000 -0.0000 -10.9038 57.4460 -3.3501 0.0000 -0.0000 0.0000 92.8800 8.8337 11.2834 -14.9209 24.0358 -3.1936 0.0000 0.0000 10.9054 -16.1502 23.9844 -6.7135 7.1250 -0.0000 -0.0000 8.0922 -5.3364 7.3801
29.8036 15.3708 -15.7284 -1.3328 -42.5165 -3.2341 0.0000 0.0000 0.0000 -17.2205 5.7567 3.4963 2.2298 9.3291 26.8304 1.9317 8.7872 -30.6368 0.7142 -5.4007 -15.0549 0.0000 0.0000 0.0000 11.9843 5.1675 -15.6394 -3.6925 -11.7396 34.8168 0.3069 -15.6832 -18.8094 -0.3953 4.0371 -11.1810 -5.6381 -0.7980 3.3925 1.5234 -1.2261 7.0489 4.7303 -1.0071 5.6050 -17.6591 -18.0703 17.4859 31.9753 -24.4249 -20.4916 13.6517 -14.2571 -2.1180 -0.0000 0.0000 0.0000 -97.0373 -3.3024 17.5183 12.3759 -20.3660 -2.2314 -0.0000 0.0000 -2.1241 21.0766 27.2587 10.0105 -7.1250 0.0000 -0.0000 -10.4026 58.5829 -3.4791 -0.0000 0.0000 0.0000 92.8911 8.8509 11.5195 -14.8236 23.8997 -3.1541 0.0000 0.0000 10.4773 -16.0234 23.8471 -6.6229 7.1250 -0.0000 -0.0000 8.1616 -5.4931 7.4202
29.8083 15.3742 -15.7332 -1.2292 -42.4992 -3.2958 0.0000 0.0000 0.0000 -17.2433 5.8288 3.4059 2.2487 9.3659 26.9468 2.0328 7.9935 -30.7680 0.5176 -4.6113 -12.8031 0.0000 0.0000 0.0000 11.8534 4.7032 -15.8827 -3.7006 -11.7510 34.8566 0.3052 -15.4407 -18.4146 -0.4450 4.2800 -11.8656 -5.7683 -0.8210 3.4634 1.4976 -1.2601 7.0434 4.7773 -1.0291 5.5674 -17.6423 -17.9736 17.1789 31.7850 -24.3124 -20.1408 13.5329 -14.1575 -2.0317 0.0000 -0.0000 0.0000 -96.9962 -3.3796 17.4534 12.3360 -20.3067 -2.2175 -0.0000 0.0000 -1.8111 20.8945 26.8417 9.7800 -7.1250 0.0000 -0.0000 -10.3806 58.1210 -3.3562 0.0000 -0.0000 0.0000 92.9096 9.0035 11.6647 -14.7047 23.7332 -3.1061 0.0000 0.0000 10.3131 -16.1626 23.8376 -6.6806 7.1250 -0.0000 -0.0000 8.0749 -5.4833 7.3413
29.8108 15.3765 -15.7371 -1.1906 -42.4737 -3.3313 0.0000 0.0000 0.0000 -17.2502 5.8205 3.3907 2.2684 9.4042 27.0680 2.0953 7.5841 -30.9084 0.4269 -4.1935 -11.6216 0.0000 0.0000 0.0000 11.7784 4.1913 -16.1099 -3.7116 -11.7665 34.9108 0.2780 -15.0627 -18.1262 -0.4541 4.3230 -11.9871 -5.8741 -0.8281 3.4938 1.5108 -1.2724 7.0837 4.8509 -1.0440 5.5997 -17.3574 -17.9269 16.8816 31.3548 -24.1848 -20.0116 13.3357 -14.0448 -2.0917 0.0000 -0.0000 0.0000 -96.9706 -3.4481 17.7104 12.3905 -20.3877 -2.2365 -0.0000 0.0000 -1.7632 19.7473 25.9737 8.9349 -7.1250 0.0000 -0.0000 -11.1628 56.9962 -3.3094 0.0000 -0.0000 0.0000 92.8891 9.2571 11.7154 -14.5990 23.5845 -3.0637 0.0000 0.0000 10.3384 -16.2038 23.8340 -6.6974 7.1250 -0.0000 -0.0000 8.0492 -5.4812 7.3178
29.8159 15.3765 -15.7405 -1.1780 -42.4685 -3.4105 0.0000 0.0000 0.0000 -17.2630 5.8224 3.3977 2.2867 9.4393 27.1793 2.0964 7.5654 -30.9040 0.4467 -4.2879 -11.8881 0.0000 0.0000 0.0000 11.7243 3.6728 -16.3077 -3.7321 -11.7951 35.0109 0.2264 -14.5897 -18.0177 -0.4770 4.4290 -12.2869 -5.8847 -0.8126 3.6719 1.5150 -1.2633 7.1023 4.8644 -1.0388 5.5175 -17.2611 -17.9197 16.6946 31.1919 -24.1580 -19.8780 13.2397 -14.0066 -2.0708 -0.0000 0.0000 0.0000 -96.9145 -3.4609 18.1581 12.4685 -20.5036 -2.2637 -0.0000 0.0000 -1.9963 16.3985 22.9853 6.5555 -7.1250 0.0000 -0.0000 -13.1862 53.3503 -2.7457 -0.0000 0.0000 0.0000 92.8644 9.4164 11.8112 -14.5949 23.5788 -3.0621 0.0000 0.0000 10.1497 -15.7863 23.7200 -6.4882 7.1250 -0.0000 -0.0000 8.3001 -5.6545 7.5231
29.8155 15.3758 -15.7465 -1.2536 -42.5265 -3.3683 0.0000 0.0000 0.0000 -17.0822 6.1359 3.2049 2.2993 9.4635 27.2562 2.0613 7.4231 -30.6031 0.4899 -4.4878 -12.4532 0.0000 0.0000 0.0000 11.7808 3.4236 -16.5099 -3.7671 -11.8438 35.1817 0.1689 -14.1631 -18.0826 -0.4433 4.2720 -11.8430 -5.8978 -0.7808 3.7674 1.5109 -1.2267 7.0819 4.8698 -1.0180 5.4369 -17.1313 -17.9078 16.3334 30.8748 -24.1715 -19.2887 13.0198 -13.9546 -1.9137 0.0000 0.0000 0.0000 -96.7620 -3.4259 18.6200 12.5468 -20.6197 -2.2912 -0.0000 0.0000 -2.4181 16.4302 23.0153 6.5769 -7.1250 0.0000 -0.0000 -13.1680 53.3857 -2.7533 0.0000 0.0000 0.0000 92.9649 9.4096 11.9564 -14.6676 23.6811 -3.0912 0.0000 0.0000 9.9637 -15.5977 23.6315 -6.3850 7.1250 -0.0000 -0.0000 8.4115 -5.7698 7.6076
29.8148 15.3725 -15.7522 -1.3593 -42.5568 -3.3265 0.0000 0.0000 0.0000 -16.8942 6.3816 3.0973 2.3056 9.4756 27.2948 2.0530 7.1992 -30.4203 0.4847 -4.4644 -12.3870 0.0000 0.0000 0.0000 11.8452 3.1725 -16.7281 -3.8179 -11.9140 35.4286 0.1295 -13.8386 -18.0857 -0.4275 4.1960 -11.6287 -5.8896 -0.7564 3.8594 1.5013 -1.1993 7.0700 4.8570 -1.0012 5.3676 -16.8595 -17.8260 15.7073 30.2998 -24.0315 -18.7721 12.7030 -13.7953 -1.8315 -0.0000 0.0000 0.0000 -96.5905 -3.4081 19.2053 12.6380 -20.7545 -2.3234 -0.0000 0.0000 -2.9838 16.8561 23.3213 6.8399 -7.1250 0.0000 -0.0000 -12.8789 53.7682 -2.8125 -0.0000 0.0000 0.0000 93.1009 9.3534 12.1638 -14.7374 23.7791 -3.1193 0.0000 0.0000 9.8778 -15.9710 23.4704 -6.5028 7.1250 -0.0000 -0.0000 8.1702 -5.8816 7.3670
29.8230 15.3688 -15.7546 -0.9883 -42.4130 -3.5383 0.0000 0.0000 0.0000 -17.2145 6.2619 3.0038 2.3146 9.4927 27.3489 2.0725 7.0373 -30.4484 0.4329 -4.2220 -11.7022 0.0000 0.0000 0.0000 11.4291 2.4638 -17.2059 -3.8767 -11.9945 35.7126 0.0978 -13.3719 -17.7843 -0.5214 4.6277 -12.8497 -6.1519 -0.7841 3.9603 1.4423 -1.2414 7.0313 4.9445 -1.0300 5.2830 -16.5942 -17.7661 15.2537 29.7873 -23.9056 -18.4890 12.4507 -13.6646 -1.8267 -0.0000 -0.0000 0.0000 -96.6181 -3.5193 19.4485 12.6481 -20.7695 -2.3270 -0.0000 0.0000 -3.1989 16.7840 23.2307 6.7844 -7.1250 0.0000 -0.0000 -12.9106 53.6647 -2.7867 -0.0000 -0.0000 0.0000 93.0671 9.3331 12.4074 -14.8245 23.9011 -3.1545 0.0000 0.0000 9.6031 -16.2257 23.3341 -6.5753 7.1250 -0.0000 -0.0000 8.0036 -5.9847 7.1977
29.8360 15.3654 -15.7555 -0.2954 -42.1733 -3.8720 0.0000 0.0000 0.0000 -17.7495 6.2991 2.6820 2.3349 9.5314 27.4723 2.0810 6.6685 -30.2919 0.3953 -4.0368 -11.1801 0.0000 0.0000 0.0000 10.7086 1.5445 -17.8409 -3.9325 -12.0700 35.9800 0.0581 -12.7361 -17.3577 -0.6096 4.9972 -13.9006 -6.6447 -0.8601 4.0040 1.3701 -1.3460 6.9796 5.1469 -1.1021 5.2357 -16.3630 -17.7607 14.8489 29.3771 -23.8191 -18.5397 12.2629 -13.5728 -1.8919 0.0000 0.0000 0.0000 -96.7898 -3.6777 19.4661 12.6663 -20.7964 -2.3335 -0.0000 0.0000 -3.2779 15.9518 22.5331 6.2511 -7.1250 0.0000 -0.0000 -13.4305 52.8217 -2.6227 0.0000 0.0000 0.0000 92.8848 9.3911 12.7180 -14.9139 24.0260 -3.1908 0.0000 0.0000 9.0883 -16.2916 23.4330 -6.6294 7.1250 -0.0000 -0.0000 7.9689 -5.8754 7.1828
